<?xml version="1.0" encoding="UTF-8" standalone="no"?><!-- Generator: Gravit.io --><svg xmlns="http://www.w3.org/2000/svg" xmlns:xlink="http://www.w3.org/1999/xlink" style="isolation:isolate" viewBox="0 0 500 500" width="500pt" height="500pt"><defs><clipPath id="_clipPath_A7Wqfsb4A5DZoJZKZxTsFiAfhtbMLkON"><rect width="500" height="500"/></clipPath></defs><g clip-path="url(#_clipPath_A7Wqfsb4A5DZoJZKZxTsFiAfhtbMLkON)"><path d="M 42.74 114 L 457.26 114 C 464.015 114 469.5 119.485 469.5 126.24 L 469.5 373.76 C 469.5 380.515 464.015 386 457.26 386 L 42.74 386 C 35.985 386 30.5 380.515 30.5 373.76 L 30.5 126.24 C 30.5 119.485 35.985 114 42.74 114 Z" style="stroke:none;fill:#171717;stroke-miterlimit:10;"/><rect x="47.75" y="131.344" width="404.5" height="237.312" transform="matrix(1,0,0,1,0,0)" fill="rgb(255,255,255)"/><path d="M 200 167 L 277.679 167 C 289.998 167 300 177.002 300 189.321 L 300 267 L 222.321 267 C 210.002 267 200 256.998 200 244.679 L 200 167 Z" style="stroke:none;fill:#E20613;stroke-miterlimit:10;"/><rect x="200" y="282" width="131" height="25" transform="matrix(1,0,0,1,0,0)" fill="rgb(116,116,116)"/><rect x="254" y="312" width="77" height="12.5" transform="matrix(1,0,0,1,0,0)" fill="rgb(209,209,209)"/><path d=" M 152 131.344 L 368 368.656 L 452.25 368.656 L 452.25 131.344 L 152 131.344 Z " fill="rgb(255,255,255)" fill-opacity="0.3"/><defs><linearGradient id="_lgradient_0" x1="0" y1="0.5" x2="1" y2="0.5"><stop offset="0%" style="stop-color:#2E2E2E"/><stop offset="100%" style="stop-color:#000000"/></linearGradient></defs><path d="M 239.25 71 L 260.75 71 C 266.269 71 270.75 75.481 270.75 81 L 270.75 114 L 229.25 114 L 229.25 81 C 229.25 75.481 233.731 71 239.25 71 Z" style="stroke:none;fill:url(#_lgradient_0);stroke-miterlimit:10;"/><linearGradient id="_lgradient_1" x1="0" y1="0.5" x2="1" y2="0.5" gradientTransform="matrix(41.5,0,0,114,229.25,386)" gradientUnits="userSpaceOnUse"><stop offset="0%" stop-opacity="1" style="stop-color:rgb(46,46,46)"/><stop offset="100%" stop-opacity="1" style="stop-color:rgb(0,0,0)"/></linearGradient><rect x="229.25" y="386" width="41.5" height="114" transform="matrix(1,0,0,1,0,0)" fill="url(#_lgradient_1)"/></g></svg>