<svg version="1.2" xmlns="http://www.w3.org/2000/svg" viewBox="0 0 130 100" width="130" height="100">
	<title>tcl-sytral-svg</title>
	<style>
		.s0 { fill: #ffffff } 
		.s1 { fill: #e20613 } 
	</style>
	<g id="tcl_x2B_sytral">
		<g id="logo_sytral_mob">
			<g id="Layer">
				<path id="Layer" fill-rule="evenodd" class="s0" d="m55 95.6l-2.1 5.1h-0.5l-2.1-5.1v5.1h-1.2v-6.8h1.7l1.9 4.5 1.8-4.5h1.7v6.8h-1.2zm7.4-1.8c1.9 0 3.4 1.6 3.4 3.6 0 2-1.4 3.5-3.4 3.5-2 0-3.4-1.5-3.4-3.5 0-2 1.3-3.6 3.4-3.6zm0 1.1c-1.4 0-2.3 1.1-2.3 2.5 0 1.3 0.9 2.4 2.3 2.4 1.4 0 2.2-1.1 2.2-2.4 0-1.4-0.8-2.5-2.2-2.5zm6.1-1.1h3.3c1.3 0 2 0.8 2 1.8 0 0.9-0.6 1.5-1.2 1.6 0.7 0.1 1.3 0.9 1.3 1.6 0 1.1-0.7 1.9-2 1.9h-3.4zm3 2.9c0.6 0 1-0.4 1-0.8 0-0.5-0.4-0.9-1-0.9h-1.9v1.7zm-1.8 3.1h1.9c0.7 0 1.1-0.4 1.1-1 0-0.6-0.4-1-1.1-1h-1.9zm6.9-5.9h1.2v6.8h-1.2zm4.2 0h1.1v5.7h3v1.1h-4.1zm6.7 0h1.2v6.7h-1.2zm5.7 1.1h-2.1v-1.1h5.3v1.1h-2v5.7h-1.2zm7.8-1.6l1.4-1.4h1l-1.7 1.4zm-2 0.4h4.6v1.1h-3.5v1.8h3.4v1h-3.4v1.9h3.5v1.1h-4.6zm7.5 4.9c0.5 0.6 1.2 1 2.2 1 1 0 1.4-0.4 1.4-0.9 0-0.6-0.8-0.8-1.6-1-1.1-0.3-2.4-0.6-2.4-2.1 0-1 1-1.9 2.5-1.9 1.1 0 1.9 0.4 2.5 1l-0.7 0.8c-0.4-0.5-1.2-0.7-1.9-0.7-0.7 0-1.2 0.3-1.2 0.8 0 0.5 0.7 0.7 1.6 1 1.1 0.3 2.4 0.6 2.4 2.1 0 1.1-0.8 2-2.6 2-1.3 0-2.2-0.5-2.8-1z"/>
			</g>
			<g id="Layer">
				<g id="Layer">
					<path id="Layer" class="s0" d="m24.3 78.5h-4.2c-0.2-1.2-0.9-2-2.7-2-1.5 0-2.5 0.6-2.5 1.7 0 0.9 0.7 1.3 2 1.6l2.4 0.5c3 0.6 5 1.9 5 4.7 0 3.4-2.8 5.4-6.9 5.4-3.7 0-7.1-1.8-7.5-5.9h4.2c0.2 1.5 1.4 2.4 3.4 2.4 1.5 0 2.3-0.6 2.3-1.5 0-0.6-0.3-1.2-1.7-1.5l-2.8-0.5c-3.2-0.7-4.8-2.2-4.8-4.9 0-3.3 2.7-5.3 6.6-5.3 2.7-0.1 6.8 0.8 7.2 5.3z"/>
				</g>
				<path id="Layer" class="s0" d="m43.7 73.4v3.7h5.3v12.9h4.1v-12.9h5.3v-3.7z"/>
				<g id="Layer">
					<path id="Layer" fill-rule="evenodd" class="s0" d="m71.9 90l-3.1-4.8h-3.2v4.8h-4.2v-16.6h7.3c4.1 0 6.8 2.3 6.8 5.9 0 2.2-1.1 4-2.8 5l3.9 5.8h-4.7zm-6.3-8.5h3.1c1.5 0 2.8-0.9 2.8-2.3 0-1.3-1.3-2.1-2.8-2.1h-3.1z"/>
				</g>
				<g id="Layer">
					<path id="Layer" class="s0" d="m82.9 90h-4.4l7-16.6h4.4z"/>
					<path id="Layer" class="s0" d="m97 90h-4.4l-7.1-16.6h4.4z"/>
				</g>
				<path id="Layer" class="s0" d="m99.5 73.4v16.6h12.4v-3.7h-8.2v-12.9z"/>
				<g id="Layer">
					<path id="Layer" class="s0" d="m31.2 90h4.4v-6.7h-4.4z"/>
					<path id="Layer" class="s0" d="m35.6 85.2h-4.4l5.6-11.8h4.3z"/>
					<path id="Layer" class="s0" d="m31.2 85.2h4.4l-5.5-11.8h-4.4z"/>
				</g>
			</g>
		</g>
		<g id="TCL">
			<path id="Layer" fill-rule="evenodd" class="s1" d="m21.7 66.9c-3 0-5.8-1.2-7.9-3.3-2-2-3.2-4.9-3.2-7.8v-55.6h55.6c2.9 0 5.8 1.2 7.8 3.2 2.1 2.1 3.2 4.9 3.2 7.9v55.6z"/>
			<path id="Layer" class="s0" d="m29.1 33.1h6.5l0.8-1.4-6.7 0.1z"/>
			<path id="Layer" class="s0" d="m30.1 31.2h6.5l0.6-1.3h-6.5z"/>
			<path id="Layer" class="s0" d="m31 29.3l6.5 0.1 0.7-1.3h-6.5z"/>
			<path id="Layer" class="s0" d="m26.8 37.5l-0.6 1.1h6.4l0.7-1.2z"/>
			<path id="Layer" class="s0" d="m23.2 44.3h6.5l0.7-1.2h-6.6z"/>
			<path id="Layer" class="s0" d="m25.1 40.6l6.6 0.1 0.7-1.6-6.5 0.1z"/>
			<path id="Layer" class="s0" d="m24.1 42.5l6.6 0.1 0.7-1.4h-6.6z"/>
			<path id="Layer" class="s0" d="m28 34.9l6.6 0.1 0.8-1.5-6.7 0.1z"/>
			<path id="Layer" class="s0" d="m27.1 36.9h6.5l0.7-1.4h-6.6z"/>
			<path id="Layer" class="s0" d="m42.9 34.9c0 0 0.5-1.1 1.6-1.1h5.5l0.2-0.4-13 0.1-0.8 1.5h6.4"/>
			<path id="Layer" class="s0" d="m41.7 37.3l-6.6 0.1-0.7 1.3h7.1c-0.3-0.5 0.2-1.3 0.2-1.4z"/>
			<path id="Layer" class="s0" d="m37.3 33.1h13.1l0.9-1.5-13.2 0.1"/>
			<path id="Layer" class="s0" d="m42.6 35.4l-6.4 0.1-0.8 1.4 6.5 0.1"/>
			<path id="Layer" class="s0" d="m38.4 31.2l13 0.1 0.8-1.6-12.7 0.1c-0.7 0.7-1.1 1.4-1.1 1.4z"/>
			<path id="Layer" class="s0" d="m64.3 22.5h-5-1.6-31.9l-0.7 1.2 32 0.1-0.1 0.2-32.2 0.4-0.6 1.2 31.9 0.1-0.1 0.2-32.2 0.4-0.6 1.2h32l-6 11.5v0.1h-6.7-0.1l-8.2 0.1-0.8 1.6h14.9l-0.1 0.2-15.1 0.2c-0.1 0.4-0.2 0.9-0.1 1.4l14.3 0.1-0.1 0.2-14 0.1c0.3 0.6 0.8 1.1 1.8 1.3h11.5 6.5 8.8l2.7-5.3h-8.7z"/>
			<path id="Layer" class="s0" d="m52.8 28.7h-6.6-3.9c-0.8 0-1.6 0.3-2.2 0.7l12.3 0.1"/>
		</g>
	</g>
</svg>