<?xml version="1.0" encoding="utf-8"?>
<!-- Generator: Adobe Illustrator 26.2.0, SVG Export Plug-In . SVG Version: 6.00 Build 0)  -->
<svg version="1.1" id="Calque_1" xmlns="http://www.w3.org/2000/svg" xmlns:xlink="http://www.w3.org/1999/xlink" x="0px" y="0px"
	 viewBox="0 0 130 100" style="enable-background:new 0 0 130 100;" xml:space="preserve">
<style type="text/css">
	.st0{fill-rule:evenodd;clip-rule:evenodd;fill:#E20613;}
	.st1{fill:#FFFFFF;}
	.st2{fill:#575756;}
</style>
<symbol  id="TCL" viewBox="-34 -34 68 68">
	<path class="st0" d="M-22.7-34c-3,0-5.9,1.2-8,3.3c-2.1,2.1-3.3,5-3.3,8V34h56.7c3,0,5.9-1.2,8-3.3c2.1-2.1,3.3-5,3.3-8V-34H-22.7z
		"/>
	<polygon class="st1" points="-15.1,0.5 -8.5,0.5 -7.7,1.9 -14.5,1.8 	"/>
	<polygon class="st1" points="-14.1,2.4 -7.5,2.4 -6.8,3.7 -13.5,3.7 	"/>
	<polygon class="st1" points="-13.2,4.3 -6.5,4.2 -5.8,5.6 -12.5,5.6 	"/>
	<polygon class="st1" points="-17.5,-4 -18.1,-5.2 -11.5,-5.2 -10.8,-3.9 	"/>
	<polygon class="st1" points="-21.1,-11 -14.5,-11 -13.8,-9.7 -20.5,-9.7 	"/>
	<polygon class="st1" points="-19.2,-7.2 -12.5,-7.3 -11.7,-5.7 -18.4,-5.8 	"/>
	<polygon class="st1" points="-20.2,-9.1 -13.5,-9.2 -12.8,-7.8 -19.5,-7.8 	"/>
	<polygon class="st1" points="-16.2,-1.4 -9.5,-1.5 -8.7,0 -15.5,-0.1 	"/>
	<polygon class="st1" points="-17.2,-3.4 -10.5,-3.4 -9.8,-2 -16.5,-2 	"/>
	<path class="st1" d="M-1-1.4c0,0,0.5,1.1,1.6,1.1h5.6l0.2,0.4L-6.9,0l-0.8-1.5l6.6,0"/>
	<path class="st1" d="M-2.3-3.8l-6.7-0.1l-0.7-1.4l7.2,0C-2.8-4.8-2.3-3.9-2.3-3.8"/>
	<polyline class="st1" points="-6.7,0.4 6.6,0.4 7.5,2 -5.9,1.9 	"/>
	<polyline class="st1" points="-1.3,-1.9 -7.9,-2 -8.7,-3.4 -2.1,-3.5 	"/>
	<path class="st1" d="M-5.6,2.4L-5.6,2.4L7.6,2.3l0.9,1.6l-13-0.1C-5.2,3.1-5.6,2.4-5.6,2.4"/>
	<path class="st1" d="M20.8,11.3h-5.1h-1.6h0h-32.6l-0.7-1.3l32.6-0.1l-0.1-0.2l-32.8-0.4l-0.6-1.2L12.4,8l-0.1-0.2l-32.8-0.4
		l-0.6-1.2h32.6L5.4-5.6l0,0l0,0l0,0h0l0-0.1h-6.8c0,0-0.1,0-0.1,0l-8.4-0.1l-0.8-1.6L4.5-7.4L4.4-7.6L-11-7.8
		c-0.1-0.4-0.2-0.9-0.1-1.4L3.5-9.3L3.4-9.5l-14.3-0.1c0.3-0.7,0.8-1.2,1.8-1.4H2.6l0,0h6.7l0,0h8.9L21-5.6h-8.9L20.8,11.3z"/>
	<path class="st1" d="M9.1,4.9H2.3h-3.9c-0.9,0-1.7-0.3-2.3-0.7L8.7,4.1"/>
</symbol>
<symbol  id="logo_sytral_mob" viewBox="-52 -14.2 104 28.3">
	<g>
		<path class="st2" d="M-6-14h1.2v6.9h-1.7l-1.9-4.6l-1.9,4.6h-1.7V-14h1.2v5.2l2.1-5.2h0.5L-6-8.8V-14z M-2-10.6
			c0-2.1,1.5-3.6,3.5-3.6c2.1,0,3.5,1.5,3.5,3.6C5-8.6,3.5-7,1.5-7C-0.6-7-2-8.6-2-10.6 M3.8-10.6c0-1.4-0.9-2.5-2.3-2.5
			c-1.4,0-2.3,1.1-2.3,2.5c0,1.4,0.9,2.5,2.3,2.5C2.9-8.1,3.8-9.2,3.8-10.6 M7.7-14h3.5c1.3,0,2,0.8,2,1.9c0,0.8-0.6,1.6-1.3,1.7
			c0.6,0.1,1.2,0.7,1.2,1.6c0,1-0.7,1.8-2,1.8H7.7V-14z M8.9-10v1.8h1.9c0.6,0,1-0.4,1-0.9s-0.4-0.9-1-0.9H8.9z M8.9-13v1.9h2
			c0.7,0,1.1-0.4,1.1-1c0-0.6-0.4-1-1.1-1H8.9z M16-14h1.2v6.9H16V-14z M20.2-14h4.2v1.1h-3v5.8h-1.2V-14z M27.1-14h1.2v6.9h-1.2
			V-14z M32.9-14h1.2v5.8h2.1v1.1h-5.4v-1.1h2.1V-14z M41.6-6.6l1.7,1.5h-1l-1.4-1.5H41.6z M38.8-14h4.7v1.1H40v1.9h3.4v1.1H40v1.8
			h3.5v1.1h-4.7V-14z M45.9-13.1c0.6-0.6,1.5-1.1,2.8-1.1c1.9,0,2.7,1,2.7,2.1c0,1.5-1.4,1.8-2.5,2.1C48-9.7,47.3-9.5,47.3-9
			c0,0.5,0.5,0.9,1.2,0.9c0.7,0,1.5-0.2,2-0.8L51.2-8c-0.6,0.6-1.5,1-2.6,1c-1.5,0-2.5-0.9-2.5-2c0-1.5,1.3-1.8,2.4-2.1
			c0.8-0.2,1.6-0.4,1.6-1c0-0.5-0.4-0.9-1.4-0.9c-1,0-1.7,0.4-2.2,1L45.9-13.1z"/>
	</g>
	<g>
		<g>
			<path class="st2" d="M-37.4,8.6h-4.2c-0.2,1.3-1,2.1-2.8,2.1c-1.5,0-2.5-0.6-2.5-1.7c0-1,0.7-1.4,2-1.7l2.4-0.5
				c3.1-0.6,5.1-1.9,5.1-4.8c0-3.4-2.8-5.5-7-5.5c-3.8,0-7.2,1.8-7.6,6h4.2c0.3-1.5,1.5-2.4,3.5-2.4c1.5,0,2.4,0.6,2.4,1.5
				c0,0.6-0.3,1.2-1.8,1.5l-2.8,0.6c-3.3,0.7-4.9,2.2-4.9,4.9c0,3.4,2.7,5.5,6.7,5.5C-41.9,14.2-37.8,13.2-37.4,8.6"/>
		</g>
		<polygon class="st2" points="-17.6,13.8 -17.6,10.1 -12.2,10.1 -12.2,-3.1 -8,-3.1 -8,10.1 -2.6,10.1 -2.6,13.8 		"/>
		<g>
			<path class="st2" d="M11.2-3.1L8,1.8h0H4.8v-4.9H0.5v16.9h7.4c4.2,0,7-2.3,7-6c0-2.2-1.1-4-2.9-5.1l4-5.9H11.2z M4.8,5.6h3.1
				c1.6,0,2.9,0.9,2.9,2.3c0,1.4-1.3,2.2-2.9,2.2H4.8V5.6z"/>
		</g>
		<g>
			<polygon class="st2" points="22.4,-3.1 17.9,-3.1 25.1,13.8 29.6,13.8 			"/>
			<polygon class="st2" points="36.8,-3.1 32.3,-3.1 25.1,13.8 29.6,13.8 			"/>
		</g>
		<polygon class="st2" points="39.4,13.8 39.4,-3.1 52,-3.1 52,0.7 43.6,0.7 43.6,13.8 		"/>
		<g>
			<rect x="-30.3" y="-3.1" class="st2" width="4.5" height="6.9"/>
			<polygon class="st2" points="-25.8,1.8 -30.3,1.8 -24.6,13.8 -20.2,13.8 			"/>
			<polygon class="st2" points="-30.3,1.8 -25.8,1.8 -31.4,13.8 -35.9,13.8 			"/>
		</g>
	</g>
</symbol>
<symbol  id="tcl_x2B_sytral" viewBox="-52 -51 104 102.1">
	
		<use xlink:href="#logo_sytral_mob"  width="104" height="28.3" id="XMLID_3_" x="-52" y="-14.2" transform="matrix(1 0 0 1 2.435869e-04 -36.8752)" style="overflow:visible;"/>
	
		<use xlink:href="#TCL"  width="68" height="68" id="XMLID_1_" x="-34" y="-34" transform="matrix(1 0 0 1 -17.9974 17.0329)" style="overflow:visible;"/>
</symbol>
<use xlink:href="#tcl_x2B_sytral"  width="104" height="102.1" x="-52" y="-51" transform="matrix(0.9803 0 0 -0.9803 50.8645 49.9136)" style="overflow:visible;"/>
</svg>
